# xmcd
# 
# Track frame offsets:
#     150
#     12189
#     27935
#     41699
#     54010
#     72438
#     84862
#     98972
#     110870
#     122234
#     136231
#     149910
#     164442
#     174320
#     181145
#     195625
#     207117
# 
# Disc length: 2957
# 
# Revision: 0
# Processed by: cddbd v1.5.2PL0 Copyright (c) Steve Scherf et al.
# Submitted via: fre:ac v1.0.31
# 
DISCID=ed0b8b11
DTITLE=Original Soundtrack - The Sapphires
DYEAR=0
DGENRE=Soundtrack
TTITLE0=Land Of A Thousand Dances
TTITLE1=I Heard It Through The Grapevine
TTITLE2=What A Man
TTITLE3=I Can't Help Myself (Sugar Pie, Honey Bunch)
TTITLE4=Who's Loving You
TTITLE5=I'll Take You There
TTITLE6=Gotcha
TTITLE7=Soul Man
TTITLE8=Hold On, I'm Coming
TTITLE9=Run Through The Jungle
TTITLE10=Today I Started Loving You Again
TTITLE11=People Make The World A Better Place
TTITLE12=Yellow Bird
TTITLE13=Ngarra Burra Ferra
TTITLE14=Shouting Out Love
TTITLE15=In The Sweet Bye And Bye
TTITLE16=Get Used To Me
EXTD=
EXTT0=
EXTT1=
EXTT2=
EXTT3=
EXTT4=
EXTT5=
EXTT6=
EXTT7=
EXTT8=
EXTT9=
EXTT10=
EXTT11=
EXTT12=
EXTT13=
EXTT14=
EXTT15=
EXTT16=
PLAYORDER=
